<svg xmlns="http://www.w3.org/2000/svg" xmlns:xlink="http://www.w3.org/1999/xlink" contentStyleType="text/css" data-diagram-type="DESCRIPTION" height="714px" preserveAspectRatio="none" style="width:1852px;height:714px;" version="1.1" viewBox="0 0 1852 714" width="1852px" zoomAndPan="magnify"><?plantuml 1.2026.6?><defs/><g><g class="title" data-source-line="6"><text fill="#000000" font-family="Verdana" font-size="22" font-weight="700" lengthAdjust="spacing" textLength="696.5557" x="577.0232" y="35.4209">Arquitectura de componentes &#8212; flujo core -&gt; hook -&gt; UI</text></g><!--cluster src/core (JS puro, sin React)--><g class="cluster" data-qualified-name="src.core .JS puro. sin React." data-source-line="8" id="ent0001"><path d="M1017.5,57.6094 L1238.6924,57.6094 A3.75,3.75 0 0 1 1241.1924,60.1094 L1248.1924,79.9063 L1364.5,79.9063 A2.5,2.5 0 0 1 1367,82.4063 L1367,142.4094 A2.5,2.5 0 0 1 1364.5,144.9094 L1017.5,144.9094 A2.5,2.5 0 0 1 1015,142.4094 L1015,60.1094 A2.5,2.5 0 0 1 1017.5,57.6094" fill="#FFFFFF" style="stroke:#000000;stroke-width:1;"/><line style="stroke:#000000;stroke-width:1;" x1="1015" x2="1248.1924" y1="79.9063" y2="79.9063"/><text fill="#000000" font-family="Verdana" font-size="14" font-weight="700" lengthAdjust="spacing" textLength="220.1924" x="1019" y="72.6045">src/core (JS puro, sin React)</text></g><!--cluster src/features/anomaly-detection-demo--><g class="cluster" data-qualified-name="src.features.anomaly-detection-demo" data-source-line="13" id="ent0004"><path d="M436.5,193.9094 L735.1025,193.9094 A3.75,3.75 0 0 1 737.6025,196.4094 L744.6025,216.2062 L1265.5,216.2062 A2.5,2.5 0 0 1 1268,218.7062 L1268,576.5594 A2.5,2.5 0 0 1 1265.5,579.0594 L436.5,579.0594 A2.5,2.5 0 0 1 434,576.5594 L434,196.4094 A2.5,2.5 0 0 1 436.5,193.9094" fill="#FFFFFF" style="stroke:#000000;stroke-width:1;"/><line style="stroke:#000000;stroke-width:1;" x1="434" x2="744.6025" y1="216.2062" y2="216.2062"/><text fill="#000000" font-family="Verdana" font-size="14" font-weight="700" lengthAdjust="spacing" textLength="297.6025" x="438" y="208.9045">src/features/anomaly-detection-demo</text></g><!--cluster components/--><g class="cluster" data-qualified-name="src.features.anomaly-detection-demo.components." data-source-line="15" id="ent0006"><path d="M460.5,368.4694 L563.2119,368.4694 A3.75,3.75 0 0 1 565.7119,370.9694 L572.7119,390.7663 L1241.5,390.7663 A2.5,2.5 0 0 1 1244,393.2663 L1244,552.5594 A2.5,2.5 0 0 1 1241.5,555.0594 L460.5,555.0594 A2.5,2.5 0 0 1 458,552.5594 L458,370.9694 A2.5,2.5 0 0 1 460.5,368.4694" fill="#FFFFFF" style="stroke:#000000;stroke-width:1;"/><line style="stroke:#000000;stroke-width:1;" x1="458" x2="572.7119" y1="390.7663" y2="390.7663"/><text fill="#000000" font-family="Verdana" font-size="14" font-weight="700" lengthAdjust="spacing" textLength="101.7119" x="462" y="383.4645">components/</text></g><!--cluster src/features/theory--><g class="cluster" data-qualified-name="src.features.theory" data-source-line="25" id="ent0013"><path d="M13.5,368.4694 L166.4902,368.4694 A3.75,3.75 0 0 1 168.9902,370.9694 L175.9902,390.7663 L175.5,390.7663 A2.5,2.5 0 0 1 178,393.2663 L178,453.2694 A2.5,2.5 0 0 1 175.5,455.7694 L13.5,455.7694 A2.5,2.5 0 0 1 11,453.2694 L11,370.9694 A2.5,2.5 0 0 1 13.5,368.4694" fill="#FFFFFF" style="stroke:#000000;stroke-width:1;"/><line style="stroke:#000000;stroke-width:1;" x1="11" x2="175.9902" y1="390.7663" y2="390.7663"/><text fill="#000000" font-family="Verdana" font-size="14" font-weight="700" lengthAdjust="spacing" textLength="151.9902" x="15" y="383.4645">src/features/theory</text></g><!--cluster src/features/conclusions--><g class="cluster" data-qualified-name="src.features.conclusions" data-source-line="29" id="ent0015"><path d="M204.5,368.4694 L397.6855,368.4694 A3.75,3.75 0 0 1 400.1855,370.9694 L407.1855,390.7663 L407.5,390.7663 A2.5,2.5 0 0 1 410,393.2663 L410,453.2694 A2.5,2.5 0 0 1 407.5,455.7694 L204.5,455.7694 A2.5,2.5 0 0 1 202,453.2694 L202,370.9694 A2.5,2.5 0 0 1 204.5,368.4694" fill="#FFFFFF" style="stroke:#000000;stroke-width:1;"/><line style="stroke:#000000;stroke-width:1;" x1="202" x2="407.1855" y1="390.7663" y2="390.7663"/><text fill="#000000" font-family="Verdana" font-size="14" font-weight="700" lengthAdjust="spacing" textLength="192.1855" x="206" y="383.4645">src/features/conclusions</text></g><!--cluster src/components (UI compartida)--><g class="cluster" data-qualified-name="src.components .UI compartida." data-source-line="33" id="ent0017"><path d="M806.5,612.0594 L1061.708,612.0594 A3.75,3.75 0 0 1 1064.208,614.5594 L1071.208,634.3563 L1178.5,634.3563 A2.5,2.5 0 0 1 1181,636.8563 L1181,696.8594 A2.5,2.5 0 0 1 1178.5,699.3594 L806.5,699.3594 A2.5,2.5 0 0 1 804,696.8594 L804,614.5594 A2.5,2.5 0 0 1 806.5,612.0594" fill="#FFFFFF" style="stroke:#000000;stroke-width:1;"/><line style="stroke:#000000;stroke-width:1;" x1="804" x2="1071.208" y1="634.3563" y2="634.3563"/><text fill="#000000" font-family="Verdana" font-size="14" font-weight="700" lengthAdjust="spacing" textLength="254.208" x="808" y="627.0545">src/components (UI compartida)</text></g><!--cluster src/app--><g class="cluster" data-qualified-name="src.app" data-source-line="40" id="ent0022"><path d="M256.5,202.0594 L315.6396,202.0594 A3.75,3.75 0 0 1 318.1396,204.5594 L325.1396,224.3563 L355.5,224.3563 A2.5,2.5 0 0 1 358,226.8563 L358,286.8494 A2.5,2.5 0 0 1 355.5,289.3494 L256.5,289.3494 A2.5,2.5 0 0 1 254,286.8494 L254,204.5594 A2.5,2.5 0 0 1 256.5,202.0594" fill="#FFFFFF" style="stroke:#000000;stroke-width:1;"/><line style="stroke:#000000;stroke-width:1;" x1="254" x2="325.1396" y1="224.3563" y2="224.3563"/><text fill="#000000" font-family="Verdana" font-size="14" font-weight="700" lengthAdjust="spacing" textLength="58.1396" x="258" y="217.0545">src/app</text></g><!--entity Env--><g class="entity" data-qualified-name="src.core .JS puro. sin React..Env" data-source-line="9" id="ent0002"><rect fill="#FFFFFF" height="36.2969" rx="2.5" ry="2.5" style="stroke:#000000;stroke-width:1;" width="135.3496" x="1215.33" y="92.6094"/><text fill="#000000" font-family="Verdana" font-size="14" lengthAdjust="spacing" textLength="115.3496" x="1225.33" y="115.6045">TrafficGridEnv.js</text></g><!--entity Agent--><g class="entity" data-qualified-name="src.core .JS puro. sin React..Agent" data-source-line="10" id="ent0003"><rect fill="#FFFFFF" height="36.2969" rx="2.5" ry="2.5" style="stroke:#000000;stroke-width:1;" width="149.3633" x="1031.32" y="92.6094"/><text fill="#000000" font-family="Verdana" font-size="14" lengthAdjust="spacing" textLength="129.3633" x="1041.32" y="115.6045">QLearningAgent.js</text></g><!--entity Hook--><g class="entity" data-qualified-name="src.features.anomaly-detection-demo.Hook" data-source-line="14" id="ent0005"><rect fill="#FFFFFF" height="52.5938" rx="2.5" ry="2.5" style="stroke:#000000;stroke-width:1;" width="179.3184" x="1043.34" y="228.9094"/><text fill="#000000" font-family="Verdana" font-size="14" lengthAdjust="spacing" textLength="159.3184" x="1053.34" y="251.9045">useTrafficSimulation.js</text><text fill="#000000" font-family="Verdana" font-size="14" lengthAdjust="spacing" textLength="98.834" x="1053.34" y="268.2014">(hook puente)</text></g><!--entity Section--><g class="entity" data-qualified-name="src.features.anomaly-detection-demo.components..Section" data-source-line="16" id="ent0007"><rect fill="#FFFFFF" height="36.2969" rx="2.5" ry="2.5" style="stroke:#000000;stroke-width:1;" width="243.0293" x="704.49" y="403.4694"/><text fill="#000000" font-family="Verdana" font-size="14" lengthAdjust="spacing" textLength="223.0293" x="714.49" y="426.4645">AnomalyDetectionDemoSection</text></g><!--entity GridMap--><g class="entity" data-qualified-name="src.features.anomaly-detection-demo.components..GridMap" data-source-line="17" id="ent0008"><rect fill="#FFFFFF" height="36.2969" rx="2.5" ry="2.5" style="stroke:#000000;stroke-width:1;" width="123.2568" x="1104.37" y="502.7694"/><text fill="#000000" font-family="Verdana" font-size="14" lengthAdjust="spacing" textLength="103.2568" x="1114.37" y="525.7645">TrafficGridMap</text></g><!--entity Decision--><g class="entity" data-qualified-name="src.features.anomaly-detection-demo.components..Decision" data-source-line="18" id="ent0009"><rect fill="#FFFFFF" height="36.2969" rx="2.5" ry="2.5" style="stroke:#000000;stroke-width:1;" width="118" x="474" y="502.7694"/><text fill="#000000" font-family="Verdana" font-size="14" lengthAdjust="spacing" textLength="98" x="484" y="525.7645">DecisionPanel</text></g><!--entity QTable--><g class="entity" data-qualified-name="src.features.anomaly-detection-demo.components..QTable" data-source-line="19" id="ent0010"><rect fill="#FFFFFF" height="36.2969" rx="2.5" ry="2.5" style="stroke:#000000;stroke-width:1;" width="107.9375" x="627.03" y="502.7694"/><text fill="#000000" font-family="Verdana" font-size="14" lengthAdjust="spacing" textLength="87.9375" x="637.03" y="525.7645">QTablePanel</text></g><!--entity Chart--><g class="entity" data-qualified-name="src.features.anomaly-detection-demo.components..Chart" data-source-line="20" id="ent0011"><rect fill="#FFFFFF" height="36.2969" rx="2.5" ry="2.5" style="stroke:#000000;stroke-width:1;" width="111.4854" x="770.26" y="502.7694"/><text fill="#000000" font-family="Verdana" font-size="14" lengthAdjust="spacing" textLength="91.4854" x="780.26" y="525.7645">RewardChart</text></g><!--entity Controls--><g class="entity" data-qualified-name="src.features.anomaly-detection-demo.components..Controls" data-source-line="21" id="ent0012"><rect fill="#FFFFFF" height="36.2969" rx="2.5" ry="2.5" style="stroke:#000000;stroke-width:1;" width="152.7813" x="916.61" y="502.7694"/><text fill="#000000" font-family="Verdana" font-size="14" lengthAdjust="spacing" textLength="132.7813" x="926.61" y="525.7645">SimulationControls</text></g><!--entity TheorySection--><g class="entity" data-qualified-name="src.features.theory.TheorySection" data-source-line="26" id="ent0014"><rect fill="#FFFFFF" height="36.2969" rx="2.5" ry="2.5" style="stroke:#000000;stroke-width:1;" width="120.6592" x="41.67" y="403.4694"/><text fill="#000000" font-family="Verdana" font-size="14" lengthAdjust="spacing" textLength="100.6592" x="51.67" y="426.4645">TheorySection</text></g><!--entity ConclusionsSection--><g class="entity" data-qualified-name="src.features.conclusions.ConclusionsSection" data-source-line="30" id="ent0016"><rect fill="#FFFFFF" height="36.2969" rx="2.5" ry="2.5" style="stroke:#000000;stroke-width:1;" width="155.6045" x="228.2" y="403.4694"/><text fill="#000000" font-family="Verdana" font-size="14" lengthAdjust="spacing" textLength="135.6045" x="238.2" y="426.4645">ConclusionsSection</text></g><!--entity Card--><g class="entity" data-qualified-name="src.components .UI compartida..Card" data-source-line="34" id="ent0018"><rect fill="#FFFFFF" height="36.2969" rx="2.5" ry="2.5" style="stroke:#000000;stroke-width:1;" width="52.9971" x="910.5" y="647.0594"/><text fill="#000000" font-family="Verdana" font-size="14" lengthAdjust="spacing" textLength="32.9971" x="920.5" y="670.0545">Card</text></g><!--entity Badge--><g class="entity" data-qualified-name="src.components .UI compartida..Badge" data-source-line="35" id="ent0019"><rect fill="#FFFFFF" height="36.2969" rx="2.5" ry="2.5" style="stroke:#000000;stroke-width:1;" width="64.5703" x="998.71" y="647.0594"/><text fill="#000000" font-family="Verdana" font-size="14" lengthAdjust="spacing" textLength="44.5703" x="1008.71" y="670.0545">Badge</text></g><!--entity Band--><g class="entity" data-qualified-name="src.components .UI compartida..Band" data-source-line="36" id="ent0020"><rect fill="#FFFFFF" height="36.2969" rx="2.5" ry="2.5" style="stroke:#000000;stroke-width:1;" width="55.9434" x="820.03" y="647.0594"/><text fill="#000000" font-family="Verdana" font-size="14" lengthAdjust="spacing" textLength="35.9434" x="830.03" y="670.0545">Band</text></g><!--entity Button--><g class="entity" data-qualified-name="src.components .UI compartida..Button" data-source-line="37" id="ent0021"><rect fill="#FFFFFF" height="36.2969" rx="2.5" ry="2.5" style="stroke:#000000;stroke-width:1;" width="66.8945" x="1098.55" y="647.0594"/><text fill="#000000" font-family="Verdana" font-size="14" lengthAdjust="spacing" textLength="46.8945" x="1108.55" y="670.0545">Button</text></g><!--entity App.jsx--><g class="entity" data-qualified-name="src.app.App.jsx" data-source-line="41" id="ent0023"><rect fill="#FFFFFF" height="36.2969" rx="2.5" ry="2.5" style="stroke:#000000;stroke-width:1;" width="71.2695" x="270.37" y="237.0594"/><text fill="#000000" font-family="Verdana" font-size="14" lengthAdjust="spacing" textLength="51.2695" x="280.37" y="260.0545">App.jsx</text></g><g class="entity" data-qualified-name="GMN39" data-source-line="63" id="ent0040"><path d="M1284.36,235.0694 L1284.36,275.335 L1569.6447,275.335 L1569.6447,245.0694 L1559.6447,235.0694 L1284.36,235.0694" fill="#FFFFFF" style="stroke:#000000;stroke-width:1;"/><path d="M1559.6447,235.0694 L1559.6447,245.0694 L1569.6447,245.0694 L1559.6447,235.0694" fill="#FFFFFF" style="stroke:#000000;stroke-width:1;"/><text fill="#000000" font-family="Verdana" font-size="13" lengthAdjust="spacing" textLength="238.6909" x="1290.36" y="252.1363">Sin imports de React ni de features/.</text><text fill="#000000" font-family="Verdana" font-size="13" lengthAdjust="spacing" textLength="264.2847" x="1290.36" y="267.2691">Testeable de forma aislada (tests/core/).</text></g><g class="entity" data-qualified-name="GMN42" data-source-line="68" id="ent0043"><path d="M1604.4,219.9394 L1604.4,290.4706 L1837.6021,290.4706 L1837.6021,229.9394 L1827.6021,219.9394 L1604.4,219.9394" fill="#FFFFFF" style="stroke:#000000;stroke-width:1;"/><path d="M1827.6021,219.9394 L1827.6021,229.9394 L1837.6021,229.9394 L1827.6021,219.9394" fill="#FFFFFF" style="stroke:#000000;stroke-width:1;"/><text fill="#000000" font-family="Verdana" font-size="13" lengthAdjust="spacing" textLength="212.2021" x="1610.4" y="237.0063">Mantiene Env y Agent en useRef</text><text fill="#000000" font-family="Verdana" font-size="13" lengthAdjust="spacing" textLength="211.4912" x="1610.4" y="252.1391">(no useState) para no recrearlos</text><text fill="#000000" font-family="Verdana" font-size="13" lengthAdjust="spacing" textLength="201.7476" x="1610.4" y="267.2719">en cada render. Expone solo lo</text><text fill="#000000" font-family="Verdana" font-size="13" lengthAdjust="spacing" textLength="209.8662" x="1610.4" y="282.4047">que la UI necesita re-renderizar.</text></g><!--reverse link Env to Hook--><g class="link" data-entity-1="ent0002" data-entity-2="ent0005" data-link-type="dependency" data-source-line="44" id="lnk24"><path d="M1270.119,133.435 C1261.379,147.485 1250.6,163.0194 1236,177.9094 C1217.38,196.8994 1193.7,214.7794 1173.74,228.4594" fill="none" id="Env-backto-Hook" style="stroke:#000000;stroke-width:1;stroke-dasharray:7,7;"/><polygon fill="#000000" points="1272.76,129.1894,1264.6097,134.7186,1270.119,133.435,1271.4026,138.9442,1272.76,129.1894" style="stroke:#000000;stroke-width:1;stroke-linejoin:miter;stroke-miterlimit:10;"/><text fill="#000000" font-family="Verdana" font-size="13" lengthAdjust="spacing" textLength="127.772" x="1251.58" y="173.9763">instancia en useRef</text></g><!--reverse link Agent to Hook--><g class="link" data-entity-1="ent0003" data-entity-2="ent0005" data-link-type="dependency" data-source-line="45" id="lnk25"><path d="M1104.3458,134.0175 C1103.6958,143.4375 1103.32,150.3094 1103,160.9094 C1102.77,168.4594 1101.59,170.4794 1103,177.9094 C1106.31,195.3894 1113.54,213.9894 1120.08,228.4494" fill="none" id="Agent-backto-Hook" style="stroke:#000000;stroke-width:1;stroke-dasharray:7,7;"/><polygon fill="#000000" points="1104.69,129.0294,1100.0799,137.7327,1104.3458,134.0175,1108.061,138.2834,1104.69,129.0294" style="stroke:#000000;stroke-width:1;stroke-linejoin:miter;stroke-miterlimit:10;"/><text fill="#000000" font-family="Verdana" font-size="13" lengthAdjust="spacing" textLength="127.772" x="1104" y="173.9763">instancia en useRef</text></g><!--link Hook to Section--><g class="link" data-entity-1="ent0005" data-entity-2="ent0007" data-link-type="dependency" data-source-line="46" id="lnk26"><path d="M1085.03,281.8894 C1021.96,315.6694 917.2277,371.7588 862.9677,400.8188" fill="none" id="Hook-to-Section" style="stroke:#000000;stroke-width:1;"/><polygon fill="#000000" points="858.56,403.1794,868.3823,402.4564,862.9677,400.8188,864.6053,395.4041,858.56,403.1794" style="stroke:#000000;stroke-width:1;stroke-linejoin:miter;stroke-miterlimit:10;"/><text fill="#000000" font-family="Verdana" font-size="13" lengthAdjust="spacing" textLength="141.6162" x="1034.7649" y="333.5363">expone grid, position,</text><text fill="#000000" font-family="Verdana" font-size="13" lengthAdjust="spacing" textLength="195.146" x="1008" y="348.6691">qTable, history, step(), reset()</text></g><!--link Section to GridMap--><g class="link" data-entity-1="ent0007" data-entity-2="ent0008" data-link-type="dependency" data-source-line="47" id="lnk27"><path d="M887.57,440.2394 C949.1,457.8394 1038.3328,483.3843 1099.7928,500.9643" fill="none" id="Section-to-GridMap" style="stroke:#000000;stroke-width:1;"/><polygon fill="#000000" points="1104.6,502.3394,1097.0471,496.0185,1099.7928,500.9643,1094.847,503.71,1104.6,502.3394" style="stroke:#000000;stroke-width:1;stroke-linejoin:miter;stroke-miterlimit:10;"/></g><!--link Section to Decision--><g class="link" data-entity-1="ent0007" data-entity-2="ent0009" data-link-type="dependency" data-source-line="48" id="lnk28"><path d="M772.94,440.2394 C719.84,457.8694 643.3751,483.2633 590.4151,500.8533" fill="none" id="Section-to-Decision" style="stroke:#000000;stroke-width:1;"/><polygon fill="#000000" points="585.67,502.4294,595.472,503.3886,590.4151,500.8533,592.9504,495.7964,585.67,502.4294" style="stroke:#000000;stroke-width:1;stroke-linejoin:miter;stroke-miterlimit:10;"/></g><!--link Section to QTable--><g class="link" data-entity-1="ent0007" data-entity-2="ent0010" data-link-type="dependency" data-source-line="49" id="lnk29"><path d="M799.74,440.2394 C773.46,457.8694 737.4217,482.0531 711.2117,499.6431" fill="none" id="Section-to-QTable" style="stroke:#000000;stroke-width:1;"/><polygon fill="#000000" points="707.06,502.4294,716.7621,500.7354,711.2117,499.6431,712.304,494.0927,707.06,502.4294" style="stroke:#000000;stroke-width:1;stroke-linejoin:miter;stroke-miterlimit:10;"/></g><!--link Section to Chart--><g class="link" data-entity-1="ent0007" data-entity-2="ent0011" data-link-type="dependency" data-source-line="50" id="lnk30"><path d="M826,440.0094 C826,457.6094 826,479.6794 826,497.3394" fill="none" id="Section-to-Chart" style="stroke:#000000;stroke-width:1;"/><polygon fill="#000000" points="826,502.3394,830,493.3394,826,497.3394,822,493.3394,826,502.3394" style="stroke:#000000;stroke-width:1;stroke-linejoin:miter;stroke-miterlimit:10;"/></g><!--link Section to Controls--><g class="link" data-entity-1="ent0007" data-entity-2="ent0012" data-link-type="dependency" data-source-line="51" id="lnk31"><path d="M856.24,440.2394 C886.51,457.8694 928.4802,482.3216 958.6602,499.9116" fill="none" id="Section-to-Controls" style="stroke:#000000;stroke-width:1;"/><polygon fill="#000000" points="962.98,502.4294,957.2185,494.4416,958.6602,499.9116,953.1901,501.3533,962.98,502.4294" style="stroke:#000000;stroke-width:1;stroke-linejoin:miter;stroke-miterlimit:10;"/></g><!--link GridMap to Card--><g class="link" data-entity-1="ent0008" data-entity-2="ent0018" data-link-type="dependency" data-source-line="53" id="lnk32"><path d="M1150.25,539.3294 C1135.47,554.5094 1111.95,575.7894 1087,587.0594 C1043.52,606.7094 1021.7,579.1594 981,604.0594 C964.56,614.1294 954.6823,628.4266 947.3523,642.3266" fill="none" id="GridMap-to-Card" style="stroke:#000000;stroke-width:1;stroke-dasharray:7,7;"/><polygon fill="#000000" points="945.02,646.7494,952.7563,640.6543,947.3523,642.3266,945.6799,636.9227,945.02,646.7494" style="stroke:#000000;stroke-width:1;stroke-linejoin:miter;stroke-miterlimit:10;"/></g><!--link GridMap to Badge--><g class="link" data-entity-1="ent0008" data-entity-2="ent0019" data-link-type="dependency" data-source-line="54" id="lnk33"><path d="M1146.85,539.2994 C1129.23,555.5494 1102.64,580.7394 1081,604.0594 C1068.16,617.8994 1057.6411,630.5332 1047.8611,642.7732" fill="none" id="GridMap-to-Badge" style="stroke:#000000;stroke-width:1;stroke-dasharray:7,7;"/><polygon fill="#000000" points="1044.74,646.6794,1053.483,642.1451,1047.8611,642.7732,1047.2331,637.1513,1044.74,646.6794" style="stroke:#000000;stroke-width:1;stroke-linejoin:miter;stroke-miterlimit:10;"/></g><!--link Decision to Card--><g class="link" data-entity-1="ent0009" data-entity-2="ent0018" data-link-type="dependency" data-source-line="55" id="lnk34"><path d="M547.46,539.3194 C561.6,554.9294 584.64,576.8994 610,587.0594 C668.48,610.4994 837.7,573.8794 893,604.0594 C910.04,613.3594 919.9551,627.9467 927.1251,642.1367" fill="none" id="Decision-to-Card" style="stroke:#000000;stroke-width:1;stroke-dasharray:7,7;"/><polygon fill="#000000" points="929.38,646.5994,928.8913,636.7627,927.1251,642.1367,921.751,640.3705,929.38,646.5994" style="stroke:#000000;stroke-width:1;stroke-linejoin:miter;stroke-miterlimit:10;"/></g><!--link TheorySection to Band--><g class="link" data-entity-1="ent0014" data-entity-2="ent0020" data-link-type="dependency" data-source-line="56" id="lnk35"><path d="M133.36,440.2194 C194.15,473.6194 333.03,546.4794 458,587.0594 C589.95,629.9094 750.1571,652.4313 815.0371,660.3813" fill="none" id="TheorySection-to-Band" style="stroke:#000000;stroke-width:1;stroke-dasharray:7,7;"/><polygon fill="#000000" points="820,660.9894,811.5533,655.9245,815.0371,660.3813,810.5803,663.8651,820,660.9894" style="stroke:#000000;stroke-width:1;stroke-linejoin:miter;stroke-miterlimit:10;"/></g><!--link App.jsx to TheorySection--><g class="link" data-entity-1="ent0023" data-entity-2="ent0014" data-link-type="dependency" data-source-line="58" id="lnk36"><path d="M284.17,273.7994 C244.9,305.4394 166.7132,368.462 127.5632,400.012" fill="none" id="App.jsx-to-TheorySection" style="stroke:#000000;stroke-width:1;"/><polygon fill="#000000" points="123.67,403.1494,133.1876,400.6166,127.5632,400.012,128.1678,394.3875,123.67,403.1494" style="stroke:#000000;stroke-width:1;stroke-linejoin:miter;stroke-miterlimit:10;"/></g><!--link App.jsx to Section--><g class="link" data-entity-1="ent0023" data-entity-2="ent0007" data-link-type="dependency" data-source-line="59" id="lnk37"><path d="M341.94,269.7794 C393.9,289.1994 493.17,325.5294 579,352.4694 C638.74,371.2194 702.614,388.6792 752.374,401.7492" fill="none" id="App.jsx-to-Section" style="stroke:#000000;stroke-width:1;"/><polygon fill="#000000" points="757.21,403.0194,749.5214,396.8642,752.374,401.7492,747.4891,404.6018,757.21,403.0194" style="stroke:#000000;stroke-width:1;stroke-linejoin:miter;stroke-miterlimit:10;"/></g><!--link App.jsx to ConclusionsSection--><g class="link" data-entity-1="ent0023" data-entity-2="ent0016" data-link-type="dependency" data-source-line="60" id="lnk38"><path d="M306,273.7994 C306,305.4394 306,366.5994 306,398.1494" fill="none" id="App.jsx-to-ConclusionsSection" style="stroke:#000000;stroke-width:1;"/><polygon fill="#000000" points="306,403.1494,310,394.1494,306,398.1494,302,394.1494,306,403.1494" style="stroke:#000000;stroke-width:1;stroke-linejoin:miter;stroke-miterlimit:10;"/></g><!--link Env to GMN39--><g class="link" data-entity-1="ent0002" data-entity-2="ent0040" data-link-type="association" data-source-line="63" id="lnk41"><path d="M1350.93,126.3294 C1370.85,133.6694 1391.01,144.6194 1405,160.9094 C1422.78,181.6094 1426.81,214.0794 1427.41,234.7394" fill="none" id="Env-GMN39" style="stroke:#000000;stroke-width:1;stroke-dasharray:7,7;"/></g><!--link Hook to GMN42--><g class="link" data-entity-1="ent0005" data-entity-2="ent0043" data-link-type="association" data-source-line="68" id="lnk44"><path d="M1167.75,228.5694 C1197.07,207.8794 1241.09,180.8394 1284.5,169.4094 C1345.74,153.2694 1508.26,153.2694 1569.5,169.4094 C1606.77,179.2294 1644.49,200.5494 1672.98,219.4794" fill="none" id="Hook-GMN42" style="stroke:#000000;stroke-width:1;stroke-dasharray:7,7;"/></g><?plantuml-src XLJDRjim3BxhARYU721nxiCm84kBhSCAh4rxMdjWRSPHAqkk9A_DXW5xY3tXdcJKZnDdQx6JQV8JFv7yn5T-Gor1fr1guUwbxj1Y2vLfEwD9-vNVAW9BbKVTA1f1Rh6wRwpfTRqqobZm5hNZ41yQeTm6Q_CeTGDhL8w4yD9pmeLzwANdhBr5g6dFHmv-__m5QzNV6VPQWjbRs1Xp7xvNfq9qJ8iDmP6prJm2Yeyhw7fhfk2aXWl2oa-EuBi0-79fSRsMrNihwnFzjRnpDu0Es0p1yq-4LlFL5WqJ3y7u8txyHRGcvAkIcwCsBQhjhAPmUsaqMwt9TBsZpBYIRQymn3dljIvY1LqV2fn4cW_iu2Cxabq3t3mbutIBn7KyK1qpqogPCKUs4tXKwXbsCPxj53-cIZf6VqPDAeO7JugVN-Ajedqq_QVO1JsYhPSRj3x6efL2-qANHdjhLEhYyCEW7oytaxLdx7QOLVmPwdlvK6LqfVfmSPTFBlUU5u_l-ml5rMdK6zSWQnoaikGARuBn3kk6igMpg_V-kQJOTVdqekjuq4yHmlA2DsKPHmolGMh7RwUI2AI15N91Qn55zZzG3CrOzhaeXj5JA08Q7kmKEkDay4-lzKCSrXGsqdbk8hy4JrqncVB3TUIBYHXIX7I3BCQ-dHR6pYo1iIjD_i0pJ5hal52MxELk7ZXYLyL0iySSJ3qZTIr4RcYaEC0SH9xp_Qi68RJn1BU6fzY2MUS5iE9j8LaLbZN1AoWk3j0os3knbOox9Evcw4IC6DiYe7GAQuI2zvLtSGtD9wKWNKEWoeHMDXiV-F9ZFqFj9V7yWaAsQTECvWrGQ1D-LXvvJK1Oe9mkB5_BcqgPy9eONWLcNhCrsH9EaY8Shs1GXW4FFO52NfMWgI9MIC3E4bn-GpkwvHy0?></g></svg>